<svg width="570" height="511" viewBox="0 0 570 511" fill="none" xmlns="http://www.w3.org/2000/svg">
<rect width="570" height="511" fill="#F0EEEA"/>
<path d="M153 255C153 272.334 156.414 289.499 163.048 305.514C169.682 321.529 179.405 336.081 191.662 348.338C203.919 360.595 218.471 370.318 234.486 376.952C250.501 383.586 267.666 387 285 387L285 255L153 255Z" fill="#FDFDFC"/>
<path d="M417 255C417 237.666 413.586 220.501 406.952 204.486C400.318 188.471 390.595 173.919 378.338 161.662C366.081 149.405 351.529 139.682 335.514 133.048C319.499 126.414 302.334 123 285 123L285 255L417 255Z" fill="#FDFDFC"/>
</svg>
